<svg width="1024" height="1024" viewBox="0 0 512 512" xmlns="http://www.w3.org/2000/svg">
<rect x="100" y="80" width="240" height="140" rx="12" fill="#E8B4A0" fill-opacity="0.6" transform="rotate(-5 220 150)"/>
<rect x="150" y="330" width="260" height="130" rx="12" fill="#C9A876" fill-opacity="0.55" transform="rotate(4 280 395)"/>
<path d="M190,160 215,167 240,153 265,167 290,153 315,167 330,160 325,183 339,203 328,225 342,245 331,267 330,270 345,264 360,270 355,293 369,313 358,335 372,357 361,379 375,401 360,420 335,427 310,413 285,427 260,413 235,427 210,413 185,427 160,420 165,398 151,378 162,356 148,334 159,312 145,290 160,270 175,276 190,270 195,247 181,227 192,205 178,183 Z" fill="#D9A05B"/>
<rect x="160" y="262" width="200" height="16" fill="#F2E4C8"/>
<rect x="253" y="112" width="10" height="46" fill="#7A4A2A"/>
<path d="M258,90 C248,102 252,116 258,112 C264,116 268,102 258,90 Z" fill="#F2E4C8"/>
<path d="M198,178 202,203 189,223 200,245 187,267 199,289 186,311 197,333 184,355 195,377 182,399 194,415" fill="none" stroke="#7A4A2A" stroke-width="2.5" stroke-dasharray="6 5"/>
<path d="M322,178 318,203 331,223 320,245 333,267 321,289 334,311 323,333 336,355 325,377 338,399 326,415" fill="none" stroke="#7A4A2A" stroke-width="2.5" stroke-dasharray="6 5"/>
</svg>
