<svg width="1024" height="1024" viewBox="0 0 512 512" xmlns="http://www.w3.org/2000/svg">
<path d="M120,150 C95,140 95,95 140,88 C165,68 190,105 212,82 C235,58 258,98 280,80 C305,58 330,98 352,88 C378,95 378,140 355,150 L345,160 L330,480 L145,480 L130,160 Z" fill="none" stroke="#00F0FF" stroke-width="14" stroke-opacity="0.35" stroke-linecap="round" stroke-linejoin="round"/>
<path d="M352,195 C440,195 460,210 460,290 C460,370 440,385 352,375" fill="none" stroke="#00F0FF" stroke-width="14" stroke-opacity="0.35" stroke-linecap="round" stroke-linejoin="round"/>
<path d="M135,168 C180,158 240,178 300,163 C320,158 335,162 345,165" fill="none" stroke="#00F0FF" stroke-width="10" stroke-opacity="0.35" stroke-linecap="round" stroke-linejoin="round"/>
<circle cx="190" cy="230" r="14" fill="none" stroke="#FF2D95" stroke-width="8" stroke-opacity="0.35"/>
<circle cx="260" cy="280" r="10" fill="none" stroke="#FF2D95" stroke-width="8" stroke-opacity="0.35"/>
<circle cx="210" cy="340" r="16" fill="none" stroke="#FF2D95" stroke-width="8" stroke-opacity="0.35"/>
<circle cx="290" cy="380" r="11" fill="none" stroke="#FF2D95" stroke-width="8" stroke-opacity="0.35"/>
<circle cx="240" cy="420" r="9" fill="none" stroke="#FF2D95" stroke-width="8" stroke-opacity="0.35"/>
<path d="M120,150 C95,140 95,95 140,88 C165,68 190,105 212,82 C235,58 258,98 280,80 C305,58 330,98 352,88 C378,95 378,140 355,150 L345,160 L330,480 L145,480 L130,160 Z" fill="none" stroke="#00F0FF" stroke-width="4" stroke-opacity="1" stroke-linecap="round" stroke-linejoin="round"/>
<path d="M352,195 C440,195 460,210 460,290 C460,370 440,385 352,375" fill="none" stroke="#00F0FF" stroke-width="4" stroke-opacity="1" stroke-linecap="round" stroke-linejoin="round"/>
<path d="M135,168 C180,158 240,178 300,163 C320,158 335,162 345,165" fill="none" stroke="#00F0FF" stroke-width="2.5" stroke-opacity="1" stroke-linecap="round" stroke-linejoin="round"/>
<circle cx="190" cy="230" r="14" fill="none" stroke="#FF2D95" stroke-width="2.5" stroke-opacity="1"/>
<circle cx="260" cy="280" r="10" fill="none" stroke="#FF2D95" stroke-width="2.5" stroke-opacity="1"/>
<circle cx="210" cy="340" r="16" fill="none" stroke="#FF2D95" stroke-width="2.5" stroke-opacity="1"/>
<circle cx="290" cy="380" r="11" fill="none" stroke="#FF2D95" stroke-width="2.5" stroke-opacity="1"/>
<circle cx="240" cy="420" r="9" fill="none" stroke="#FF2D95" stroke-width="2.5" stroke-opacity="1"/>
</svg>
