<svg width="1024" height="1024" viewBox="0 0 512 512" xmlns="http://www.w3.org/2000/svg">
<path d="M160,70 C220,50 300,50 355,72 C365,80 365,92 353,98 C300,116 218,116 165,98 C153,92 152,80 160,70 Z" fill="#7E8FA6" fill-opacity="0.6"/>
<path d="M158,90 C150,160 165,232 210,272 C230,290 285,290 305,272 C348,234 362,160 356,92 C300,110 216,110 158,90 Z" fill="#7E8FA6" fill-opacity="0.55"/>
<path d="M168,102 C162,164 176,226 214,262 C232,278 282,278 300,262 C336,228 348,164 344,104 C292,120 216,120 168,102 Z" fill="#7E8FA6" fill-opacity="0.6"/>
<path d="M172,150 C170,190 185,240 215,262 C232,276 282,276 298,262 C330,238 344,192 342,155 C280,172 230,172 172,150 Z" fill="#8B3A4A" fill-opacity="0.7"/>
<path d="M182,168 C182,196 194,232 218,250 C234,262 276,262 292,250 C316,230 328,196 324,170 C272,184 228,184 182,168 Z" fill="#B5546B" fill-opacity="0.6"/>
<path d="M190,110 C186,140 190,180 200,210 C204,220 214,218 212,206 C208,172 206,140 208,112 C208,106 192,104 190,110 Z" fill="#E7DFCE" fill-opacity="0.6"/>
<path d="M246,274 C244,274 240,276 240,284 C238,332 238,380 240,414 C240,421 246,425 252,425 C258,425 264,421 264,414 C266,380 266,332 264,284 C264,276 260,274 258,274 Z" fill="#7E8FA6" fill-opacity="0.62"/>
<path d="M180,420 C220,408 300,408 336,422 C346,426 346,438 336,442 C300,454 220,454 180,442 C170,438 170,426 180,420 Z" fill="#7E8FA6" fill-opacity="0.68"/>
<path d="M190,428 C224,420 296,420 328,430 C334,433 334,439 328,441 C296,449 224,449 192,441 C186,439 186,431 190,428 Z" fill="#E7DFCE" fill-opacity="0.55"/>
</svg>
